<svg xmlns="http://www.w3.org/2000/svg" width="179.508" height="65.951" viewBox="0 0 179.508 65.951">
  <g id="Logo" transform="translate(-53.637 -36.985)">
    <g id="Group_1302" data-name="Group 1302" transform="translate(30.744 22.223)">
      <g id="Group_1300" data-name="Group 1300" transform="translate(0 0)">
        <g id="Group_1299" data-name="Group 1299" transform="translate(24.079 16.028)">
          <g id="Group_1298" data-name="Group 1298">
            <path id="Path_1849" data-name="Path 1849" d="M61.1,74.31c0-17.476,39.618-31.71,88.488-31.71s88.567,14.234,88.567,31.71-39.618,31.71-88.488,31.71S61.1,91.787,61.1,74.31Z" transform="translate(-61.1 -42.6)" fill="#fff"/>
          </g>
        </g>
      </g>
      <g id="Group_1301" data-name="Group 1301" transform="translate(22.893 14.763)">
        <path id="Path_1850" data-name="Path 1850" d="M61.1,74.31c0-17.476,39.618-31.71,88.488-31.71s88.567,14.234,88.567,31.71-39.618,31.71-88.488,31.71S61.1,91.787,61.1,74.31Z" transform="translate(-59.914 -41.335)" fill="#fce14a"/>
        <path id="Path_1851" data-name="Path 1851" d="M62.051,73.976c0-16.527,39.934-30.445,87.3-30.445s87.3,13.918,87.3,30.445-39.934,30.445-87.3,30.445S62.051,90.5,62.051,73.976Zm-2.451,0c0,18.5,39.46,32.976,89.754,32.976,50.373,0,89.754-14.471,89.754-32.976S199.647,41,149.354,41C98.981,41,59.6,55.471,59.6,73.976Z" transform="translate(-59.6 -41)" fill="#1d1d1b"/>
      </g>
      <path id="Path_1852" data-name="Path 1852" d="M74.4,67.7h0c5.931-4.666,13.522-7.433,24.593-10.6l.079.474,1.661,10.2-7.117,2.372,5.061,25.938H88.713l-4.27-22.458-9.015,4.666L74.4,67.7Z" transform="translate(-39.804 -29.606)" fill="#1d1d1b" fill-rule="evenodd"/>
      <path id="Path_1853" data-name="Path 1853" d="M113.7,101.819c0,1.819,1.5,2.689,3.163,2.689,2.056,0,3.163-1.028,3.163-2.372,0-1.74-1.661-2.056-2.214-2.214-1.9-.474-2.214-.554-2.214-1.107,0-.633.633-.87,1.107-.87.791,0,1.423.237,1.5,1.107h1.582c0-1.74-1.423-2.451-3-2.451-1.344,0-2.847.712-2.847,2.293,0,1.423,1.107,1.819,2.214,2.135s2.214.4,2.214,1.265c0,.791-.87.949-1.5.949-.87,0-1.661-.4-1.661-1.423h-1.5Z" transform="translate(-48.026 -37.87)" fill="#1d1d1b" fill-rule="evenodd"/>
      <path id="Path_1854" data-name="Path 1854" d="M137.6,104.433h1.661v-2.689H141A2.383,2.383,0,1,0,141,97h-3.4v7.433Zm1.661-6.247h1.265c.791,0,1.423.158,1.423,1.107s-.712,1.107-1.423,1.107h-1.265V98.186Z" transform="translate(-53.026 -37.954)" fill="#1d1d1b" fill-rule="evenodd"/>
      <path id="Path_1855" data-name="Path 1855" d="M160.8,100.653a3.61,3.61,0,0,0,3.717,3.875,3.92,3.92,0,0,0,0-7.829c-2.293-.079-3.717,1.661-3.717,3.954Zm1.661,0c0-1.344.554-2.61,2.056-2.61s2.056,1.265,2.056,2.61c0,1.265-.554,2.53-2.056,2.53a2.25,2.25,0,0,1-2.056-2.53Z" transform="translate(-57.88 -37.89)" fill="#1d1d1b" fill-rule="evenodd"/>
      <path id="Path_1856" data-name="Path 1856" d="M186.4,104.433h1.661v-2.926h1.661c.87,0,1.107.316,1.265,1.107a11.318,11.318,0,0,0,.237,1.819h1.661a3.264,3.264,0,0,1-.316-1.74c-.079-.791-.316-1.582-1.107-1.74h0a1.813,1.813,0,0,0,1.186-1.9A2.083,2.083,0,0,0,190.433,97H186.4v7.433Zm1.582-6.247H189.8c.712,0,1.107.316,1.107,1.028a.968.968,0,0,1-1.107,1.107h-1.819V98.186Z" transform="translate(-63.236 -37.954)" fill="#1d1d1b" fill-rule="evenodd"/>
      <path id="Path_1857" data-name="Path 1857" d="M211.914,104.412h1.661V98.244h2.293V96.9H209.7v1.344h2.214Z" transform="translate(-68.111 -37.933)" fill="#1d1d1b" fill-rule="evenodd"/>
      <path id="Path_1858" data-name="Path 1858" d="M235.4,102.119c0,1.819,1.5,2.689,3.163,2.689,2.056,0,3.163-1.028,3.163-2.372,0-1.74-1.661-2.056-2.214-2.214-1.9-.474-2.214-.554-2.214-1.107,0-.633.633-.87,1.107-.87.791,0,1.423.237,1.5,1.107h1.582c0-1.74-1.423-2.451-3-2.451-1.344,0-2.847.712-2.847,2.293,0,1.423,1.107,1.819,2.214,2.135s2.214.4,2.214,1.265c0,.791-.87.949-1.423.949-.87,0-1.661-.4-1.661-1.423Z" transform="translate(-73.488 -37.933)" fill="#1d1d1b" fill-rule="evenodd"/>
      <path id="Path_1859" data-name="Path 1859" d="M130.24,57.805,123.6,59.071l1.028,5.14-6.563,1.265c.4-2.293.87-6.247,7.987-7.671l5.219-1.028L128.579,51.4l-3.242.633c-4.745.949-8.778,2.293-11.624,6.563A17.531,17.531,0,0,0,111.5,71.644,23.382,23.382,0,0,0,117.9,83.427l4.666-4.587a17.115,17.115,0,0,1-4.112-7.512l7.275-1.423,1.582,8.066,6.643-1.265-3.717-18.9Z" transform="translate(-47.485 -28.413)" fill="#1d1d1b" fill-rule="evenodd"/>
      <path id="Path_1860" data-name="Path 1860" d="M165.1,48.3l-6.722.316L159.4,68.544l-2.531.158c-1.344.079-4.982.237-5.219-4.587-.316-5.456,2.768-11.941,4.033-15.341l-7.275.4c-2.135,4.9-3.954,10.043-3.717,15.42.316,5.931,3.242,10.438,10.755,10.043l10.913-.554L165.1,48.3Z" transform="translate(-54.506 -27.765)" fill="#1d1d1b" fill-rule="evenodd"/>
      <path id="Path_1861" data-name="Path 1861" d="M181.435,48.3l-1.977,5.694,10.913.791c1.186.079,3.242.079,3.163,1.819-.158,2.451-4.507,4.587-6.405,5.773a60.168,60.168,0,0,0,8.778,16.685l5.931-3.479a55.824,55.824,0,0,1-6.722-11.466c3.084-1.661,5.852-3.954,6.089-7.75.237-2.926-1.265-6.8-7.354-7.2l-12.415-.87Zm5.931,7.038-6.722-.474L179.3,74l6.722.474,1.344-19.137Z" transform="translate(-61.751 -27.765)" fill="#1d1d1b" fill-rule="evenodd"/>
      <path id="Path_1862" data-name="Path 1862" d="M236.825,56.117l-6.563-1.5-4.507,19.453-2.451-.554c-1.265-.316-4.824-1.107-3.8-5.852,1.186-5.3,5.931-10.676,8.145-13.6L220.535,52.4c-3.4,4.112-6.563,8.54-7.75,13.76-1.344,5.852.237,10.913,7.592,12.652l10.676,2.451,5.773-25.147Z" transform="translate(-68.666 -28.622)" fill="#1d1d1b" fill-rule="evenodd"/>
      <path id="Path_1863" data-name="Path 1863" d="M265.228,68.54,258.9,64.982c-4.9-2.768-7.829-.158-8.936,1.819-1.265,2.214-.712,4.587-.237,6.959l1.5,6.722c.158.633.474,1.5.079,2.135-.474.87-1.977-.158-2.61-.474l-5.377-3L241.9,84.989l6.88,3.8c4.982,2.768,7.829.158,8.936-1.819,1.265-2.214.712-4.587.158-6.959l-1.582-6.8c-.158-.633-.474-1.5-.079-2.135.474-.87,1.977.158,2.61.474l4.982,2.768,1.423-5.773Z" transform="translate(-74.848 -31.003)" fill="#1d1d1b" fill-rule="evenodd"/>
    </g>
  </g>
</svg>
