<svg xmlns="http://www.w3.org/2000/svg" width="76.682" height="83.277" viewBox="0 0 76.682 83.277">
  <g id="Group_2948" data-name="Group 2948" transform="translate(396.227 -878.305)">
    <path id="Path_1801" data-name="Path 1801" d="M-381.234,988.419l-12.992-13V951.87a4,4,0,0,1,4-4h0a4,4,0,0,1,4,4v11" transform="translate(0 -37.825)" fill="none" stroke="#fce14a" stroke-linecap="round" stroke-miterlimit="10" stroke-width="4"/>
    <path id="Path_1802" data-name="Path 1802" d="M-355.218,1011.307v-10.793l-10.389-10.389a3.13,3.13,0,0,0-4.426,0h0a3.13,3.13,0,0,0,0,4.427l6.542,6.542" transform="translate(-13.03 -60.967)" fill="none" stroke="#fce14a" stroke-linecap="round" stroke-miterlimit="10" stroke-width="4"/>
    <path id="Path_1803" data-name="Path 1803" d="M-376.655,1055.375v-3.96h20.583v3.96" transform="translate(-9.837 -95.793)" fill="none" stroke="#fce14a" stroke-linecap="round" stroke-miterlimit="10" stroke-width="4"/>
    <path id="Path_1804" data-name="Path 1804" d="M-260.749,988.419l12.783-13V951.87a4,4,0,0,0-4-4h0a4,4,0,0,0-4,4v11" transform="translate(-73.579 -37.825)" fill="none" stroke="#fce14a" stroke-linecap="round" stroke-miterlimit="10" stroke-width="4"/>
    <path id="Path_1805" data-name="Path 1805" d="M-288.122,1011.562v-11.048l10.389-10.389a3.13,3.13,0,0,1,4.426,0h0a3.13,3.13,0,0,1,0,4.427l-6.542,6.542" transform="translate(-59.4 -60.967)" fill="none" stroke="#fce14a" stroke-linecap="round" stroke-miterlimit="10" stroke-width="4"/>
    <path id="Path_1806" data-name="Path 1806" d="M-272.855,1055.375v-3.96h-20.583v3.96" transform="translate(-56.424 -95.793)" fill="none" stroke="#fce14a" stroke-linecap="round" stroke-miterlimit="10" stroke-width="4"/>
    <g id="Group_1278" data-name="Group 1278" transform="translate(-379.279 880.304)">
      <path id="Path_1807" data-name="Path 1807" d="M-316.568,901.685c-3.807-7-12.138-12.643-22.871-12.159" transform="translate(348.608 -885.45)" fill="none" stroke="#fce14a" stroke-linecap="round" stroke-miterlimit="10" stroke-width="4"/>
      <path id="Path_1808" data-name="Path 1808" d="M-311.652,913.461c7.328-2.384,14.006-6.234,16.591-12.949" transform="translate(333.052 -891.617)" fill="none" stroke="#fce14a" stroke-linecap="round" stroke-miterlimit="10" stroke-width="4"/>
      <path id="Path_1809" data-name="Path 1809" d="M-312.927,940.272a24.264,24.264,0,0,0,21.949-13.679" transform="translate(333.766 -906.218)" fill="none" stroke="#fce14a" stroke-linecap="round" stroke-miterlimit="10" stroke-width="4"/>
      <path id="Path_1810" data-name="Path 1810" d="M-312.764,929.93c-1.547,7.228-1.232,14.851,2.5,20.481" transform="translate(334.164 -908.086)" fill="none" stroke="#fce14a" stroke-linecap="round" stroke-miterlimit="10" stroke-width="4"/>
      <path id="Path_1811" data-name="Path 1811" d="M-338.692,914.933c-3.947,6.718-4.892,16.2.486,25.281" transform="translate(350.013 -899.69)" fill="none" stroke="#fce14a" stroke-linecap="round" stroke-miterlimit="10" stroke-width="4"/>
      <path id="Path_1812" data-name="Path 1812" d="M-336.887,919.36c-5.687-5.286-12.852-9.206-19.841-8.133" transform="translate(358.287 -897.516)" fill="none" stroke="#fce14a" stroke-linecap="round" stroke-miterlimit="10" stroke-width="4"/>
      <circle id="Ellipse_104" data-name="Ellipse 104" cx="21.394" cy="21.394" r="21.394" transform="translate(0)" fill="none" stroke="#fce14a" stroke-linecap="round" stroke-miterlimit="10" stroke-width="4"/>
    </g>
  </g>
</svg>
