<svg xmlns="http://www.w3.org/2000/svg" width="80.643" height="77.158" viewBox="0 0 80.643 77.158">
  <g id="Group_2949" data-name="Group 2949" transform="translate(-346.465 -7559.068)">
    <g id="Icon_feather-shopping-cart" data-name="Icon feather-shopping-cart" transform="translate(348.464 7561.068)">
      <path id="Path_1798" data-name="Path 1798" d="M23.945,35.972A5.973,5.973,0,1,1,17.973,30,5.973,5.973,0,0,1,23.945,35.972Z" transform="translate(12.386 31.213)" fill="none" stroke="#fce14a" stroke-linecap="round" stroke-linejoin="round" stroke-width="4"/>
      <path id="Path_1799" data-name="Path 1799" d="M23.945,35.972A5.973,5.973,0,1,1,17.973,30,5.973,5.973,0,0,1,23.945,35.972Z" transform="translate(44.688 31.213)" fill="none" stroke="#fce14a" stroke-linecap="round" stroke-linejoin="round" stroke-width="4"/>
      <path id="Path_1800" data-name="Path 1800" d="M1.5,1.5H15.435l9.336,46.647a6.967,6.967,0,0,0,6.967,5.609H65.6a6.967,6.967,0,0,0,6.967-5.609l5.574-29.228-40.315-.11" transform="translate(-1.5 -1.5)" fill="none" stroke="#fce14a" stroke-linecap="round" stroke-linejoin="round" stroke-width="4"/>
    </g>
    <line id="Line_288" data-name="Line 288" x2="27.74" transform="translate(382.902 7590.397)" fill="none" stroke="#fce14a" stroke-linecap="round" stroke-width="4"/>
    <line id="Line_289" data-name="Line 289" x2="26.631" transform="translate(381.792 7601.493)" fill="none" stroke="#fce14a" stroke-linecap="round" stroke-width="4"/>
  </g>
</svg>
