<svg xmlns="http://www.w3.org/2000/svg" width="102.873" height="61.324" viewBox="0 0 102.873 61.324">
  <g id="Group_2947" data-name="Group 2947" transform="translate(-119.584 -162.055)">
    <g id="Group_1281" data-name="Group 1281" transform="translate(121.583 178.027)">
      <line id="Line_290" data-name="Line 290" x2="38.775" transform="translate(0 0)" fill="none" stroke="#fce14a" stroke-linecap="round" stroke-linejoin="round" stroke-width="4"/>
      <line id="Line_291" data-name="Line 291" x2="38.775" transform="translate(11.734 8.548)" fill="none" stroke="#fce14a" stroke-linecap="round" stroke-linejoin="round" stroke-width="4"/>
      <line id="Line_292" data-name="Line 292" x2="38.775" transform="translate(0 17.095)" fill="none" stroke="#fce14a" stroke-linecap="round" stroke-linejoin="round" stroke-width="4"/>
    </g>
    <path id="Path_1813" data-name="Path 1813" d="M168.652,275.98V289.8a3.957,3.957,0,0,0,3.957,3.957h10.418" transform="translate(-33.775 -80.315)" fill="none" stroke="#fce14a" stroke-linecap="round" stroke-linejoin="round" stroke-width="4"/>
    <path id="Path_1814" data-name="Path 1814" d="M219.379,213.441h20.156a3.957,3.957,0,0,0,3.957-3.957V168.012a3.957,3.957,0,0,0-3.957-3.957H195.272" transform="translate(-52.877)" fill="none" stroke="#fce14a" stroke-linecap="round" stroke-linejoin="round" stroke-width="4"/>
    <path id="Path_1815" data-name="Path 1815" d="M177.753,164.055h-5.144a3.957,3.957,0,0,0-3.957,3.957v9.257" transform="translate(-33.775)" fill="none" stroke="#fce14a" stroke-linecap="round" stroke-linejoin="round" stroke-width="4"/>
    <path id="Path_1816" data-name="Path 1816" d="M238.811,320.038a7.432,7.432,0,1,1-7.432-7.432A7.432,7.432,0,0,1,238.811,320.038Z" transform="translate(-73.454 -106.597)" fill="none" stroke="#fce14a" stroke-linecap="round" stroke-linejoin="round" stroke-width="4"/>
    <circle id="Ellipse_105" data-name="Ellipse 105" cx="7.432" cy="7.432" r="7.432" transform="matrix(0.998, -0.055, 0.055, 0.998, 197.353, 206.431)" fill="none" stroke="#fce14a" stroke-linecap="round" stroke-linejoin="round" stroke-width="4"/>
    <line id="Line_293" data-name="Line 293" x2="16.115" transform="translate(181.119 213.441)" fill="none" stroke="#fce14a" stroke-linecap="round" stroke-linejoin="round" stroke-width="4"/>
    <path id="Path_1817" data-name="Path 1817" d="M366.009,211.407h12.685a3.557,3.557,0,0,1,2.939,1.553l9.95,14.595h.714a3.556,3.556,0,0,1,3.554,3.557v12.751a3.557,3.557,0,0,1-3.557,3.557h-3.708" transform="translate(-175.394 -33.979)" fill="none" stroke="#fce14a" stroke-linecap="round" stroke-linejoin="round" stroke-width="4"/>
    <path id="Path_1818" data-name="Path 1818" d="M410.7,245.3H396.2a3.557,3.557,0,0,1-3.557-3.557v-5.608" transform="translate(-194.508 -51.722)" fill="none" stroke="#fce14a" stroke-linecap="round" stroke-linejoin="round" stroke-width="4"/>
  </g>
</svg>
