<svg id="mastercard-2" xmlns="http://www.w3.org/2000/svg" width="42.011" height="32.684" viewBox="0 0 42.011 32.684">
  <path id="Path_1820" data-name="Path 1820" d="M142.563,1321.675v.084h.078a.082.082,0,0,0,.042-.011.038.038,0,0,0,.016-.032.036.036,0,0,0-.016-.031.079.079,0,0,0-.042-.011h-.078Zm.079-.06a.144.144,0,0,1,.094.027.091.091,0,0,1,.033.074.085.085,0,0,1-.026.065.127.127,0,0,1-.075.031l.105.12h-.081l-.1-.119h-.031v.119H142.5v-.318h.147Zm-.021.428a.256.256,0,0,0,.1-.021.268.268,0,0,0,.084-.057.263.263,0,0,0,.057-.084.272.272,0,0,0,0-.208.271.271,0,0,0-.141-.141.262.262,0,0,0-.1-.02.281.281,0,0,0-.105.02.266.266,0,0,0-.142.351.248.248,0,0,0,.056.084.273.273,0,0,0,.086.057.263.263,0,0,0,.105.021m0-.609a.351.351,0,0,1,.247.1.34.34,0,0,1,.074.375.354.354,0,0,1-.074.109.38.38,0,0,1-.111.073.343.343,0,0,1-.136.027.349.349,0,0,1-.138-.027.361.361,0,0,1-.112-.073.355.355,0,0,1-.073-.113.34.34,0,0,1,.186-.448.347.347,0,0,1,.138-.027m-32.161-1.224a1.044,1.044,0,1,1,1.046,1.1,1.035,1.035,0,0,1-1.046-1.1m2.791,0v-1.725h-.75v.42a1.306,1.306,0,0,0-1.089-.505,1.812,1.812,0,0,0,0,3.621,1.307,1.307,0,0,0,1.089-.505v.419h.749v-1.725Zm25.328,0a1.044,1.044,0,1,1,1.046,1.1,1.035,1.035,0,0,1-1.046-1.1m2.792,0V1317.1h-.75v1.8a1.306,1.306,0,0,0-1.089-.505,1.812,1.812,0,0,0,0,3.621,1.307,1.307,0,0,0,1.089-.505v.419h.75Zm-18.816-1.139a.856.856,0,0,1,.872.836H121.64a.888.888,0,0,1,.916-.836m.015-.672a1.812,1.812,0,0,0,.05,3.621,2.1,2.1,0,0,0,1.413-.483l-.367-.555a1.644,1.644,0,0,1-1,.36.957.957,0,0,1-1.031-.844h2.56c.007-.093.015-.187.015-.288a1.654,1.654,0,0,0-1.637-1.81m9.05,1.81a1.044,1.044,0,1,1,1.046,1.1,1.034,1.034,0,0,1-1.046-1.1m2.791,0v-1.723h-.749v.42a1.307,1.307,0,0,0-1.089-.505,1.812,1.812,0,0,0,0,3.621,1.308,1.308,0,0,0,1.089-.505v.419h.749v-1.725Zm-7.024,0a1.741,1.741,0,0,0,1.839,1.811,1.8,1.8,0,0,0,1.239-.411l-.36-.606a1.515,1.515,0,0,1-.9.311,1.106,1.106,0,0,1,0-2.207,1.52,1.52,0,0,1,.9.31l.36-.606a1.8,1.8,0,0,0-1.239-.411,1.741,1.741,0,0,0-1.839,1.81m9.663-1.81a1.018,1.018,0,0,0-.909.505v-.418H135.4v3.447h.75V1320c0-.57.245-.887.735-.887a1.213,1.213,0,0,1,.469.087l.231-.706a1.591,1.591,0,0,0-.534-.094m-20.092.361a2.578,2.578,0,0,0-1.406-.361c-.873,0-1.436.419-1.436,1.1,0,.562.419.909,1.189,1.017l.354.05c.411.058.605.166.605.361,0,.266-.273.419-.786.419a1.834,1.834,0,0,1-1.147-.361l-.352.585a2.487,2.487,0,0,0,1.492.448c1,0,1.572-.469,1.572-1.125,0-.606-.454-.923-1.2-1.031l-.353-.051c-.325-.042-.585-.107-.585-.338,0-.252.245-.4.656-.4a2.222,2.222,0,0,1,1.075.3l.324-.606Zm9.672-.36a1.015,1.015,0,0,0-.908.505v-.419h-.743v3.447h.75V1320c0-.57.245-.887.735-.887a1.213,1.213,0,0,1,.469.087l.231-.706a1.591,1.591,0,0,0-.534-.094m-6.4.086h-1.226v-1.045h-.758v1.045h-.7v.685h.7v1.572c0,.8.31,1.276,1.2,1.276a1.763,1.763,0,0,0,.938-.266l-.217-.642a1.388,1.388,0,0,1-.664.195c-.375,0-.5-.231-.5-.577v-1.557h1.226Zm-11.207,3.448v-2.163a1.283,1.283,0,0,0-1.356-1.37,1.334,1.334,0,0,0-1.212.613,1.265,1.265,0,0,0-1.139-.613,1.14,1.14,0,0,0-1.01.512v-.426h-.75v3.447h.756v-1.911a.807.807,0,0,1,.844-.916c.5,0,.75.324.75.909v1.919h.758v-1.911a.813.813,0,0,1,.843-.917c.512,0,.756.324.756.909v1.918Z" transform="translate(-101.385 -1289.437)" fill="#fff"/>
  <path id="Path_1821" data-name="Path 1821" d="M1929.944,977.724v-.5h-.131l-.152.346-.151-.346h-.132v.5h.093v-.38l.142.328h.1l.142-.328v.38h.093Zm-.833,0v-.418h.168v-.085h-.429v.085h.168v.418h.093Z" transform="translate(-1888.339 -956.695)" fill="#f79410"/>
  <path id="Path_1822" data-name="Path 1822" d="M741.07,152.565H729.71V132.15h11.36Z" transform="translate(-714.384 -129.374)" fill="#ff5f00"/>
  <path id="Path_1823" data-name="Path 1823" d="M16.046,12.983A12.962,12.962,0,0,1,21,2.775,12.983,12.983,0,1,0,21,23.19a12.962,12.962,0,0,1-4.959-10.207" transform="translate(0 0.001)" fill="#eb001b"/>
  <path id="Path_1824" data-name="Path 1824" d="M1021.116,12.983A12.983,12.983,0,0,1,1000.11,23.19a12.985,12.985,0,0,0,0-20.415,12.982,12.982,0,0,1,21.006,10.207" transform="translate(-979.105 0.001)" fill="#f79e1b"/>
</svg>
