<svg id="Group_2948" data-name="Group 2948" xmlns="http://www.w3.org/2000/svg" width="75.759" height="24.578" viewBox="0 0 75.759 24.578">
  <g id="Group_1286" data-name="Group 1286" transform="translate(0 0)">
    <path id="Path_1830" data-name="Path 1830" d="M44.068,75.687H37.886L41.75,51.943h6.182ZM32.686,51.943,26.793,68.275l-.7-3.517h0l-2.08-10.678a2.646,2.646,0,0,0-2.932-2.138H11.34l-.114.4a23.126,23.126,0,0,1,6.466,2.714l5.371,20.629H29.5l9.835-23.745H32.686ZM81.309,75.687h5.676L82.036,51.943H77.067a2.841,2.841,0,0,0-2.854,1.769l-9.22,21.975h6.444l1.289-3.527h7.859Zm-6.8-8.4L77.755,58.4l1.827,8.886Zm-9.03-9.635.882-5.1a17.843,17.843,0,0,0-5.56-1.035c-3.068,0-10.353,1.341-10.353,7.86,0,6.134,8.55,6.21,8.55,9.432s-7.669,2.645-10.2.613l-.919,5.331A17.324,17.324,0,0,0,54.855,76.1c4.219,0,10.583-2.184,10.583-8.129,0-6.174-8.627-6.748-8.627-9.432s6.021-2.34,8.666-.882Z" transform="translate(-11.226 -51.519)" fill="#2566af"/>
  </g>
  <path id="Path_1831" data-name="Path 1831" d="M26.1,65l-2.08-10.678a2.646,2.646,0,0,0-2.932-2.138H11.34l-.114.4A23.951,23.951,0,0,1,20.4,57.195,18.515,18.515,0,0,1,26.1,65Z" transform="translate(-11.226 -51.762)" fill="#e6a540"/>
</svg>
