<svg xmlns="http://www.w3.org/2000/svg" width="31.268" height="31.268" viewBox="0 0 31.268 31.268"><g id="facebook" transform="translate(0.002 -0.003)"><g id="Group_527" data-name="Group 527" transform="translate(-0.002 0.003)"><path id="Path_292" data-name="Path 292" d="M349.726,296.3a15.634,15.634,0,1,1,15.634-15.634A15.634,15.634,0,0,1,349.726,296.3Zm0-29.42a13.787,13.787,0,1,0,13.786,13.786,13.788,13.788,0,0,0-13.786-13.786Z" transform="translate(-334.092 -265.032)" fill="#fce14a"></path></g><g id="Group_528" data-name="Group 528" transform="translate(14.545 9.314)"><path id="Path_293" data-name="Path 293" d="M342.957,289.983h-2.174V274a4.693,4.693,0,0,1,4.688-4.686h2.81v2.174h-2.81A2.516,2.516,0,0,0,342.957,274Z" transform="translate(-340.783 -269.313)" fill="#fce14a"></path></g><g id="Group_529" data-name="Group 529" transform="translate(11.031 16.397)"><rect id="Rectangle_588" data-name="Rectangle 588" width="11.012" height="2.174" fill="#fce14a"></rect></g></g></svg>