<svg xmlns="http://www.w3.org/2000/svg" id="instagram" width="31.268" height="31.268" viewBox="0 0 31.268 31.268"><g id="Group_520" data-name="Group 520" transform="translate(0 0)"><path id="Path_287" data-name="Path 287" d="M333.974,296.132A15.634,15.634,0,1,1,349.61,280.5a15.634,15.634,0,0,1-15.636,15.634Zm0-29.42A13.787,13.787,0,1,0,347.762,280.5a13.787,13.787,0,0,0-13.788-13.788Z" transform="translate(-318.342 -264.864)" fill="#fce14a"></path></g><g id="Group_521" data-name="Group 521" transform="translate(8.693 8.692)"><path id="Path_288" data-name="Path 288" d="M329.278,282.742a6.941,6.941,0,1,1,6.943-6.938A6.941,6.941,0,0,1,329.278,282.742Zm0-12.034a5.094,5.094,0,1,0,5.094,5.094,5.093,5.093,0,0,0-5.094-5.094Z" transform="translate(-322.339 -268.86)" fill="#fce14a"></path></g><g id="Group_522" data-name="Group 522" transform="translate(21.997 7.271)"><path id="Path_289" data-name="Path 289" d="M328.925,268.348a1,1,0,1,1-.462.981A.994.994,0,0,1,328.925,268.348Z" transform="translate(-328.454 -268.203)" fill="#fce14a"></path></g></svg>