<svg xmlns="http://www.w3.org/2000/svg" id="youtube" width="31.268" height="31.268" viewBox="0 0 31.268 31.268"><g id="Group_524" data-name="Group 524" transform="translate(0 0)"><path id="Path_290" data-name="Path 290" d="M366.293,295.837A15.634,15.634,0,1,1,381.927,280.2,15.634,15.634,0,0,1,366.293,295.837Zm0-29.42A13.787,13.787,0,1,0,380.079,280.2,13.788,13.788,0,0,0,366.293,266.417Z" transform="translate(-350.659 -264.569)" fill="#fce14a"></path></g><g id="Group_525" data-name="Group 525" transform="translate(12.633 11.546)"><path id="Path_291" data-name="Path 291" d="M356.47,269.878c3.1,1.513,6.177,3.09,9.267,4.631-3.1,1.524-6.177,3.094-9.265,4.636Q356.463,274.514,356.47,269.878Z" transform="translate(-356.467 -269.878)" fill="#fce14a"></path></g></svg>